<svg id="Calque_1" data-name="Calque 1" xmlns="http://www.w3.org/2000/svg" viewBox="0 0 61.04 90">
  <title>divers</title>
  <path d="M71.43,17.64V6.5A1.5,1.5,0,0,0,69.93,5H30.07a1.5,1.5,0,0,0-1.5,1.5V17.64L19.72,31.41l0,.09a1.3,1.3,0,0,0-.08.16s0,.1,0,.15a1.29,1.29,0,0,0,0,.14,1.51,1.51,0,0,0,0,.19s0,.06,0,.09V93.5A1.5,1.5,0,0,0,21,95H79a1.5,1.5,0,0,0,1.5-1.5V32.22a1.51,1.51,0,0,0-.24-.81ZM31.21,19.08H68.1L60.29,31.22H23.41Zm38.42,1.31,7,10.83H62.67ZM68.43,8v9.08H31.57V8ZM22.48,33.22H59.83V92H22.48ZM61.84,92V33.22H77.52V92Z" transform="translate(-19.48 -5)"/>
</svg>
