<svg id="Calque_1" data-name="Calque 1" xmlns="http://www.w3.org/2000/svg" viewBox="0 0 80.19 89.84">
  <title>fruit</title>
  <path d="M87.94,48.19c-4.11,0-8.52,1.52-11.88,3,1.26-3.74,4.17-8.13,10.94-8.54l-.36-6a17.43,17.43,0,0,0-11.21,4.55A14,14,0,0,0,74,36.9c-4.08-7.71-15.06-9.42-15.52-9.49l-2.19-.33-1,2c-.2.42-5,10.46-.86,18.17.18.35.38.67.59,1-11.23.91-23.12,15.81-23.12,29.42,0,33.5,39.3,39.18,39.69,39.24l.4,0a3,3,0,0,0,.51,0c.4-.07,39.58-7.24,39.58-40.22C112.14,63.09,99.47,48.19,87.94,48.19ZM59.88,33.88c2.7.77,7,2.49,8.81,5.83,1.68,3.16.84,7.64-.11,10.56-2.7-.77-7-2.49-8.81-5.83C58.1,41.27,58.94,36.79,59.88,33.88Zm12.11,77c-4-.69-34-6.68-34-33.22,0-11.33,10.68-23.46,18.19-23.46,3.67,0,7.94,1.74,10.85,3.18-6.77,7.71-8.82,18.31-5.89,31L67,87c-2.77-12-.58-21.25,6.49-27.63l.21-.11c2.21-1.41,9.09-5.06,14.29-5.06,7.61,0,18.2,11.32,18.2,22.46C106.14,103.11,76.3,110,72,110.87Z" transform="translate(-31.95 -27.08)"/>
</svg>
