<svg id="Calque_1" data-name="Calque 1" xmlns="http://www.w3.org/2000/svg" viewBox="0 0 47.99 44.89">
  <title>legume</title>
  <g>
    <path d="M45.44,46.45h0a4.42,4.42,0,0,1-2-.54c-.33-.22-26.74-18-31.71-21.7A4.87,4.87,0,0,1,9.6,20.41c-.17-3.72,3.89-7.53,4.38-8S18.09,8,21.73,8a4.91,4.91,0,0,1,4,2.15c3.68,5,21.48,31.38,21.66,31.65.53.92,1,2.69-.15,3.88A2.52,2.52,0,0,1,45.44,46.45ZM21.73,10c-2.42,0-5.36,2.71-6.29,3.76l-.08.08c-1.08,1-3.87,4-3.76,6.44a2.92,2.92,0,0,0,1.34,2.27C17.87,26.24,44.25,44,44.51,44.2a2.52,2.52,0,0,0,.93.24h0a.52.52,0,0,0,.42-.14c.34-.34,0-1.22-.14-1.42S27.8,16.31,24.15,11.38A2.91,2.91,0,0,0,21.73,10Z" transform="translate(0 -1.55)"/>
    <path d="M14.08,13.53a1,1,0,0,1-.77-.36C8.35,7.12.73,4.28.66,4.25a1,1,0,1,1,.69-1.88,36.59,36.59,0,0,1,10,6A8.48,8.48,0,0,1,12,2a1,1,0,0,1,1.72,1c-2.14,3.57,1.13,8.87,1.17,8.92a1,1,0,0,1-.85,1.53Z" transform="translate(0 -1.55)"/>
    <path d="M13.44,14.16a1,1,0,0,1-.56-.17c-5.95-4-10-.94-10-.9a1,1,0,1,1-1.23-1.58c.21-.16,5.26-4,12.4.82a1,1,0,0,1-.56,1.83Z" transform="translate(0 -1.55)"/>
    <path d="M20.3,21.62a1,1,0,0,1-.86-1.5c.1-.18,2.62-4.42,6.92-6A1,1,0,1,1,27,16c-3.61,1.3-5.85,5.07-5.87,5.11A1,1,0,0,1,20.3,21.62Z" transform="translate(0 -1.55)"/>
    <path d="M25.49,25.87a1,1,0,0,1-.86-1.5,12.76,12.76,0,0,1,5.92-5.11,1,1,0,0,1,.68,1.88,10.89,10.89,0,0,0-4.87,4.24A1,1,0,0,1,25.49,25.87Z" transform="translate(0 -1.55)"/>
    <path d="M31.22,30.66a1,1,0,0,1-.89-1.45,8.51,8.51,0,0,1,5-4.15,1,1,0,1,1,.5,1.94,6.57,6.57,0,0,0-3.7,3.1A1,1,0,0,1,31.22,30.66Z" transform="translate(0 -1.55)"/>
  </g>
</svg>
