<svg id="Calque_1" data-name="Calque 1" xmlns="http://www.w3.org/2000/svg" viewBox="0 0 88.52 45.49">
  <title>poisson</title>
  <path d="M51,54.6l-2.26,2.26L46.46,54.6a2.5,2.5,0,1,0-3.53,3.53l4,4a2.5,2.5,0,0,0,3.54,0l4-4A2.5,2.5,0,1,0,51,54.6Z" transform="translate(-5.74 -27.25)"/>
  <circle cx="55.16" cy="23.21" r="2.67"/>
  <path d="M74.5,54.53,77,52a2.5,2.5,0,0,0-.15-3.68C70.74,43.17,61.13,37,50.07,37,35.66,37,23.77,47.55,19.7,51.64L10,41.95a2.5,2.5,0,0,0-4.27,1.77V67.43A2.5,2.5,0,0,0,10,69.19l10.4-10.41c4.63,4.49,16,14,29.65,14,11.24,0,21-6.36,27.16-11.69a2.5,2.5,0,0,0,.13-3.66ZM10.74,61.39V49.75l5.82,5.82Zm39.33,6.36c-12.07,0-22.62-9.08-26.5-12.89C27.44,51.05,38,42,50.07,42c8.39,0,16,4.28,21.44,8.48l-2.3,2.3a2.5,2.5,0,0,0,0,3.54L71.88,59C66.93,62.83,58.9,67.75,50.07,67.75Z" transform="translate(-5.74 -27.25)"/>
  <circle cx="83.78" cy="20.54" r="4.74"/>
  <circle cx="74.91" cy="8.97" r="2.89"/>
  <circle cx="83.78" cy="2.03" r="2.03"/>
</svg>
