<svg id="Calque_1" data-name="Calque 1" xmlns="http://www.w3.org/2000/svg" viewBox="0 0 90 92.48">
  <title>viande</title>
  <g>
    <path d="M62.22,43.41l.14.07.56.3a14.58,14.58,0,0,0,6.54,1.64h0a11.06,11.06,0,0,0,3.44-.53l.06,0,.11,0a9.19,9.19,0,0,0,3.53-2.2C81,38.22,80,30,74.35,24.4a16.11,16.11,0,0,0-11.12-5,9.8,9.8,0,0,0-7.12,2.78c-4.41,4.42-3.41,12.61,2.23,18.24A18.06,18.06,0,0,0,62.22,43.41Zm-3.89-19a6.73,6.73,0,0,1,4.9-1.86,13.13,13.13,0,0,1,8.9,4.06c4.42,4.41,5.42,10.6,2.23,13.79a6.75,6.75,0,0,1-4.9,1.86,13.13,13.13,0,0,1-8.9-4.06C56.14,33.81,55.14,27.62,58.33,24.42Z" transform="translate(-5 -3.76)"/>
    <path d="M83.38,15.35C76.11,8.1,66.6,3.76,58,3.76a20.19,20.19,0,0,0-14.6,5.58A60.34,60.34,0,0,0,28.46,28.6C24.91,35.77,23,43,23.12,49a27.42,27.42,0,0,0,4.51,14.32c-3,3.14-9.58,10.06-11.31,11.89A8.46,8.46,0,0,0,5,83.54a7.79,7.79,0,0,0,6.22,7.26c1.36,3.4,4.13,5.44,7.35,5.44l.5,0a8.47,8.47,0,0,0,7.9-9,8.34,8.34,0,0,0-.81-3.1c1.4-1.48,7.07-7.44,10.27-10.8l.78-.82a14,14,0,0,0,1.94.86A24.4,24.4,0,0,0,47,74.5a52.24,52.24,0,0,0,14.11-2.14A63.72,63.72,0,0,0,88.47,56.29h0c.32-.28.64-.57.93-.86C98.79,46,96.09,28,83.38,15.35Zm-2.22,2.23C92.65,29,95.35,45,87.18,53.21c-.27.26-.56.53-.85.78a18.36,18.36,0,0,1-11.92,4h0c-7.84,0-16-3.81-22.88-10.71C40,35.8,37.35,19.81,45.52,11.63A17.09,17.09,0,0,1,58,6.91C65.79,6.9,74.46,10.89,81.16,17.58ZM60.27,69.34C50.9,72,43.75,71.66,40.19,70.42a12.76,12.76,0,0,1-2.43-1.19h0a1.57,1.57,0,0,0-2,.26S23.88,82,23.52,82.36a2.23,2.23,0,0,0-.34,2.87,5.24,5.24,0,0,1,.64,2.21,5.32,5.32,0,0,1-5,5.65c-2.47.16-4.1-1.77-4.8-3.64a2.47,2.47,0,0,0-1.92-1.66,4.75,4.75,0,0,1-4-4.37,5.33,5.33,0,0,1,5.1-5.52,5.26,5.26,0,0,1,2.32.44,2.09,2.09,0,0,0,2.67-.55c.3-.33,6.92-7.28,11.23-11.81a15.33,15.33,0,0,0,1.3,1.45A1.57,1.57,0,1,0,33,65.21a25.78,25.78,0,0,1-2.07-2.58h0A24.62,24.62,0,0,1,26.26,49c-.14-8,4-20,11.92-29.87-2,9.44,2,21.27,11.12,30.38C56.82,57,65.73,61.11,74.4,61.11h0a25.42,25.42,0,0,0,3.75-.28A61.25,61.25,0,0,1,60.27,69.34Z" transform="translate(-5 -3.76)"/>
  </g>
</svg>
